<?xml version="1.0" encoding="UTF-8"?>
<svg width="240" height="300" viewBox="0 0 240 300" xmlns="http://www.w3.org/2000/svg">
  <defs>
    <filter id="cardShadow" x="-20%" y="-20%" width="140%" height="140%">
      <feDropShadow dx="0" dy="2" stdDeviation="4" flood-opacity="0.12"/>
    </filter>
    <linearGradient id="paper" x1="0" y1="0" x2="0" y2="1">
      <stop offset="0" stop-color="#ffffff"/>
      <stop offset="1" stop-color="#f7f7f9"/>
    </linearGradient>
  </defs>
  <rect x="10" y="10" width="220" height="280" rx="14" fill="#ffffff" stroke="#e6e8ef" filter="url(#cardShadow)"/>
  <g transform="translate(28,28)">
    <rect x="0" y="0" width="184" height="228" rx="10" fill="url(#paper)" stroke="#dfe3ea"/>
    <!-- Cover area with device illustration -->
    <rect x="0" y="0" width="184" height="80" rx="10" fill="#f0f7ff"/>
    <g transform="translate(124,12)">
      <rect x="0" y="0" width="40" height="68" rx="8" fill="#ffe7ec" stroke="#ffc9d4"/>
      <rect x="6" y="10" width="28" height="40" rx="4" fill="#ffffff" stroke="#ffd6df"/>
      <rect x="12" y="54" width="16" height="6" rx="3" fill="#ffd3dd"/>
    </g>
    <!-- Sidebar-like block -->
    <rect x="16" y="96" width="40" height="116" rx="8" fill="#eaf3ff"/>
    <!-- List content -->
    <g transform="translate(64,96)">
      <rect x="0" y="0" width="96" height="8" rx="4" fill="#cfd7ff"/>
      <rect x="0" y="16" width="104" height="6" rx="3" fill="#e6e8ef"/>
      <rect x="0" y="28" width="92" height="6" rx="3" fill="#f0f1f5"/>
      <rect x="0" y="40" width="84" height="6" rx="3" fill="#f0f1f5"/>
    </g>
    <g transform="translate(64,156)">
      <rect x="0" y="0" width="96" height="8" rx="4" fill="#cfd7ff"/>
      <rect x="0" y="16" width="104" height="6" rx="3" fill="#e6e8ef"/>
      <rect x="0" y="28" width="92" height="6" rx="3" fill="#f0f1f5"/>
      <rect x="0" y="40" width="72" height="6" rx="3" fill="#f0f1f5"/>
    </g>
  </g>
</svg>
