<?xml version="1.0" encoding="UTF-8"?>
<svg width="240" height="300" viewBox="0 0 240 300" xmlns="http://www.w3.org/2000/svg">
  <defs>
    <filter id="cardShadow" x="-20%" y="-20%" width="140%" height="140%">
      <feDropShadow dx="0" dy="2" stdDeviation="4" flood-opacity="0.12"/>
    </filter>
    <linearGradient id="paper" x1="0" y1="0" x2="0" y2="1">
      <stop offset="0" stop-color="#ffffff"/>
      <stop offset="1" stop-color="#f7f7f9"/>
    </linearGradient>
  </defs>
  <rect x="10" y="10" width="220" height="280" rx="14" fill="#ffffff" stroke="#e6e8ef" filter="url(#cardShadow)"/>
  <g transform="translate(28,28)">
    <rect x="0" y="0" width="184" height="228" rx="10" fill="url(#paper)" stroke="#dfe3ea"/>
    <rect x="0" y="0" width="184" height="36" rx="10" fill="#f0f3ff"/>
    <!-- Avatar -->
    <circle cx="26" cy="64" r="16" fill="#e6f4ea" stroke="#cfe8d3"/>
    <circle cx="26" cy="60" r="6" fill="#c2d6ff"/>
    <rect x="16" y="72" width="20" height="6" rx="3" fill="#d9d9e3"/>
    <!-- Name & title lines -->
    <rect x="52" y="50" width="70" height="8" rx="4" fill="#cfd7ff"/>
    <rect x="52" y="64" width="100" height="6" rx="3" fill="#e6e8ef"/>
    <!-- Section titles -->
    <rect x="16" y="96" width="60" height="8" rx="4" fill="#b9c1ff"/>
    <rect x="16" y="148" width="60" height="8" rx="4" fill="#b9c1ff"/>
    <rect x="16" y="200" width="60" height="8" rx="4" fill="#b9c1ff"/>
    <!-- Bulleted blocks -->
    <g transform="translate(16,110)">
      <circle cx="2" cy="3.5" r="2" fill="#ccd1d9"/>
      <rect x="8" y="0" width="150" height="6" rx="3" fill="#e6e8ef"/>
      <rect x="8" y="10" width="130" height="6" rx="3" fill="#f0f1f5"/>
      <rect x="8" y="20" width="120" height="6" rx="3" fill="#f0f1f5"/>
    </g>
    <g transform="translate(16,162)">
      <circle cx="2" cy="3.5" r="2" fill="#ccd1d9"/>
      <rect x="8" y="0" width="150" height="6" rx="3" fill="#e6e8ef"/>
      <rect x="8" y="10" width="130" height="6" rx="3" fill="#f0f1f5"/>
      <rect x="8" y="20" width="120" height="6" rx="3" fill="#f0f1f5"/>
    </g>
    <g transform="translate(16,214)">
      <circle cx="2" cy="3.5" r="2" fill="#ccd1d9"/>
      <rect x="8" y="0" width="150" height="6" rx="3" fill="#e6e8ef"/>
    </g>
  </g>
</svg>
