<?xml version="1.0" encoding="UTF-8"?>
<svg width="240" height="300" viewBox="0 0 240 300" xmlns="http://www.w3.org/2000/svg">
  <defs>
    <filter id="cardShadow" x="-20%" y="-20%" width="140%" height="140%">
      <feDropShadow dx="0" dy="2" stdDeviation="4" flood-opacity="0.12"/>
    </filter>
    <linearGradient id="paper" x1="0" y1="0" x2="0" y2="1">
      <stop offset="0" stop-color="#ffffff"/>
      <stop offset="1" stop-color="#f7f7f9"/>
    </linearGradient>
  </defs>
  <rect x="10" y="10" width="220" height="280" rx="14" fill="#ffffff" stroke="#e6e8ef" filter="url(#cardShadow)"/>
  <g transform="translate(28,28)">
    <rect x="0" y="0" width="184" height="228" rx="10" fill="url(#paper)" stroke="#dfe3ea"/>
    <rect x="0" y="0" width="184" height="36" rx="10" fill="#f3f6ff"/>
    <!-- Envelope icon -->
    <g transform="translate(20,56)">
      <rect x="0" y="0" width="48" height="32" rx="6" fill="#e8f0fe" stroke="#cfdbff"/>
      <path d="M2,2 L24,18 L46,2" fill="none" stroke="#b7c6ff" stroke-width="2"/>
      <path d="M2,30 L24,14 L46,30" fill="none" stroke="#b7c6ff" stroke-width="2"/>
    </g>
    <!-- Lines -->
    <g transform="translate(76,52)">
      <rect x="0" y="6" width="92" height="8" rx="4" fill="#e3e6ef"/>
      <rect x="0" y="22" width="76" height="6" rx="3" fill="#f0f1f5"/>
      <rect x="0" y="34" width="92" height="6" rx="3" fill="#f0f1f5"/>
    </g>
    <!-- Body -->
    <g transform="translate(20,104)">
      <rect x="0" y="0" width="144" height="8" rx="4" fill="#cfd7ff"/>
      <rect x="0" y="16" width="164" height="6" rx="3" fill="#e6e8ef"/>
      <rect x="0" y="28" width="150" height="6" rx="3" fill="#f0f1f5"/>
      <rect x="0" y="40" width="138" height="6" rx="3" fill="#f0f1f5"/>
    </g>
    <g transform="translate(20,164)">
      <rect x="0" y="0" width="144" height="8" rx="4" fill="#cfd7ff"/>
      <rect x="0" y="16" width="164" height="6" rx="3" fill="#e6e8ef"/>
      <rect x="0" y="28" width="150" height="6" rx="3" fill="#f0f1f5"/>
      <rect x="0" y="40" width="120" height="6" rx="3" fill="#f0f1f5"/>
    </g>
  </g>
</svg>
