<?xml version="1.0" encoding="UTF-8"?>
<svg width="240" height="300" viewBox="0 0 240 300" xmlns="http://www.w3.org/2000/svg">
  <defs>
    <filter id="cardShadow" x="-20%" y="-20%" width="140%" height="140%">
      <feDropShadow dx="0" dy="2" stdDeviation="4" flood-opacity="0.12"/>
    </filter>
    <linearGradient id="paper" x1="0" y1="0" x2="0" y2="1">
      <stop offset="0" stop-color="#ffffff"/>
      <stop offset="1" stop-color="#f7f7f9"/>
    </linearGradient>
  </defs>
  <rect x="10" y="10" width="220" height="280" rx="14" fill="#ffffff" stroke="#e6e8ef" filter="url(#cardShadow)"/>
  <g transform="translate(28,28)">
    <rect x="0" y="0" width="184" height="228" rx="10" fill="url(#paper)" stroke="#dfe3ea"/>
    <!-- Hero geometric cover -->
    <rect x="0" y="0" width="184" height="80" rx="10" fill="#e8f0fe"/>
    <polygon points="0,80 80,0 110,0 30,80" fill="#b7c6ff" opacity="0.9"/>
    <polygon points="184,0 120,80 184,80" fill="#a6e3d0" opacity="0.9"/>
    <!-- Section bars -->
    <rect x="16" y="96" width="60" height="8" rx="4" fill="#b9c1ff"/>
    <rect x="16" y="148" width="60" height="8" rx="4" fill="#b9c1ff"/>
    <!-- Paragraphs -->
    <g transform="translate(16,112)">
      <rect x="0" y="0" width="152" height="6" rx="3" fill="#e6e8ef"/>
      <rect x="0" y="12" width="164" height="6" rx="3" fill="#f0f1f5"/>
      <rect x="0" y="24" width="140" height="6" rx="3" fill="#f0f1f5"/>
    </g>
    <g transform="translate(16,164)">
      <rect x="0" y="0" width="152" height="6" rx="3" fill="#e6e8ef"/>
      <rect x="0" y="12" width="164" height="6" rx="3" fill="#f0f1f5"/>
      <rect x="0" y="24" width="120" height="6" rx="3" fill="#f0f1f5"/>
    </g>
  </g>
</svg>
